<?xml version="1.0" encoding="utf-8"?>
<!-- Generator: Adobe Illustrator 16.0.0, SVG Export Plug-In . SVG Version: 6.00 Build 0)  -->
<!DOCTYPE svg PUBLIC "-//W3C//DTD SVG 1.1//EN" "http://www.w3.org/Graphics/SVG/1.1/DTD/svg11.dtd">
<svg version="1.1" id="Symbol" xmlns="http://www.w3.org/2000/svg" xmlns:xlink="http://www.w3.org/1999/xlink" x="0px" y="0px"
	 width="100px" height="100px" viewBox="0 0 100 100" enable-background="new 0 0 100 100" xml:space="preserve">
<path fill="#FFFFFF" d="M51.25,25L31.558,35.376c-0.985,0.551-2.168,0.63-3.216,0.209l-2.563-1.023L45,24.454V22.5L24.977,33.062
	c-0.758,0.425-1.227,1.228-1.227,2.1v27.91c0,1.527,0.929,2.9,2.347,3.466L27.5,67.1c0.703,0.283,1.447,0.414,2.185,0.399
	c0.923-0.015,1.838-0.258,2.661-0.722l1.469-0.771c-0.017-0.146-0.065-0.286-0.065-0.436V37.656c0-0.869,0.468-1.67,1.226-2.1
	l16.273-8.579V25z M56.558,45.376c-0.986,0.552-2.168,0.63-3.219,0.21l-2.561-1.025L70,34.454V32.5L49.976,43.059
	c-0.757,0.428-1.225,1.228-1.225,2.1V73.07c0,1.525,0.927,2.898,2.345,3.467l1.403,0.562c0.704,0.281,1.447,0.413,2.187,0.401
	c0.922-0.016,1.839-0.26,2.66-0.724l18.903-9.929V35L56.558,45.376z M73.749,45.781L61.25,52.499V47.5l12.499-6.718V45.781z
	 M63.75,30L44.058,40.376c-0.986,0.552-2.168,0.63-3.217,0.21l-2.561-1.023L57.5,29.454V27.5L37.476,38.062
	c-0.756,0.424-1.226,1.228-1.226,2.099V68.07c0,1.528,0.928,2.9,2.346,3.468L40,72.099c0.704,0.283,1.446,0.415,2.185,0.4
	c0.923-0.014,1.839-0.259,2.662-0.723l1.47-0.771c-0.017-0.146-0.066-0.285-0.066-0.434V42.656c0-0.869,0.469-1.67,1.226-2.1
	l16.274-8.579V30z"/>
</svg>
