<?xml version="1.0" encoding="utf-8"?>
<!-- Generator: Adobe Illustrator 16.0.0, SVG Export Plug-In . SVG Version: 6.00 Build 0)  -->
<!DOCTYPE svg PUBLIC "-//W3C//DTD SVG 1.1//EN" "http://www.w3.org/Graphics/SVG/1.1/DTD/svg11.dtd">
<svg version="1.1" xmlns="http://www.w3.org/2000/svg" xmlns:xlink="http://www.w3.org/1999/xlink" x="0px" y="0px" width="100px"
	 height="100px" viewBox="0 0 100 100" enable-background="new 0 0 100 100" xml:space="preserve">
<g id="Symbol" display="none">
	<path display="inline" fill="#379AD6" d="M51.951,43.436h-3.237c-1.049,0-1.902,0.85-1.902,1.903v13.995
		c0,1.049,0.853,1.9,1.902,1.9h3.237c1.051,0,1.902-0.851,1.902-1.9V45.339C53.853,44.286,53.001,43.436,51.951,43.436z
		 M37.698,43.436h-3.239c-1.04,0-1.899,0.853-1.899,1.903v13.995c0,1.049,0.859,1.903,1.899,1.903h3.239
		c1.052,0,1.903-0.854,1.903-1.903V45.339C39.601,44.289,38.75,43.436,37.698,43.436z M66.197,43.436H62.96
		c-1.048,0-1.897,0.85-1.897,1.903v13.995c0,1.049,0.849,1.9,1.897,1.9h3.236c1.048,0,1.898-0.851,1.898-1.9V45.339
		C68.095,44.286,67.245,43.436,66.197,43.436z M74.574,37.977l-23.811-9.293c-0.279-0.083-0.579-0.083-0.855,0l-23.827,9.293
		c-0.668,0.19-1.084,0.798-0.979,1.428c0.109,0.634,0.708,1.101,1.404,1.101h47.637c0.707,0,1.31-0.467,1.412-1.101
		C75.664,38.775,75.25,38.167,74.574,37.977z M75.75,68.221V65.51c0-1.04-0.854-1.9-1.902-1.9H27.164c-1.048,0-1.901,0.86-1.901,1.9
		v2.711c0,1.048,0.853,1.9,1.901,1.9h46.684C74.896,70.121,75.75,69.269,75.75,68.221z"/>
</g>
<g id="圖層_2">
	<path fill-rule="evenodd" clip-rule="evenodd" fill="#FFFFFF" d="M51.021,73.076h-1.029H39.1v-2.059
		c4.603-3.505,8.201-7.996,8.365-13.178c-0.705-0.005-1.28-0.439-1.28-0.969l0,0c0-0.534,0.582-0.97,1.294-0.97h6.174
		c0.711,0,1.293,0.436,1.293,0.97l0,0c0,0.533-0.582,0.97-1.293,0.97h-0.106c0.165,5.181,3.762,9.672,8.365,13.177v2.059H51.021
		L51.021,73.076z M45.5,29.149c-0.107,3.236-0.445,6.326-1.026,9.26c-0.555,2.807-1.331,5.484-2.335,8.027
		c0.174,0.361,0.452,0.679,0.782,0.954c0.657,0.547,1.498,0.916,2.178,1.129l-0.698,2.238c-0.908-0.285-2.05-0.792-2.983-1.57
		c-0.757-0.631-1.379-1.443-1.661-2.468l-0.106-0.386l0.148-0.362c1.03-2.528,1.818-5.201,2.375-8.012
		c0.56-2.837,0.886-5.799,0.989-8.884L45.5,29.149L45.5,29.149z M38.743,32.448l-2.821-0.768l0.457-1.676h-6.076
		c0.595,2.921,1.656,5.486,3.163,7.708c1.279,1.887,2.892,3.54,4.823,4.964c1.096-3.716,1.794-7.963,1.86-13.052
		c-0.201-0.05-0.398-0.107-0.589-0.168L38.743,32.448L38.743,32.448z M35.975,27.068h-7.407h-1.681l0.23,1.668
		c0.562,4.069,1.884,7.599,3.929,10.614c1.639,2.417,3.737,4.488,6.272,6.225c-0.249,0.667-0.512,1.316-0.783,1.951
		c5.206,9.905,21.939,9.905,27.146,0c-0.272-0.633-0.534-1.28-0.783-1.945c2.54-1.738,4.64-3.811,6.282-6.23
		c2.045-3.015,3.367-6.545,3.929-10.614l0.23-1.668h-1.68h-7.419c0.562-0.673,1.032-1.464,1.411-2.373h-7.762H42.327h-7.763
		C34.943,25.604,35.413,26.395,35.975,27.068L35.975,27.068z M60.666,29.452l0.816,2.996l2.821-0.768l-0.457-1.676h6.077
		c-0.596,2.921-1.657,5.486-3.165,7.708c-1.281,1.889-2.896,3.544-4.831,4.971c-1.098-3.717-1.797-7.965-1.863-13.059
		C60.271,29.571,60.471,29.514,60.666,29.452L60.666,29.452z M37,73.604h26.698c0.777,0,1.412,0.476,1.412,1.058l0,0
		c0,0.582-0.635,1.057-1.412,1.057H37c-0.775,0-1.412-0.476-1.412-1.057l0,0C35.588,74.08,36.225,73.604,37,73.604z"/>
</g>
</svg>
