<?xml version="1.0" encoding="utf-8"?>
<!-- Generator: Adobe Illustrator 16.0.0, SVG Export Plug-In . SVG Version: 6.00 Build 0)  -->
<!DOCTYPE svg PUBLIC "-//W3C//DTD SVG 1.1//EN" "http://www.w3.org/Graphics/SVG/1.1/DTD/svg11.dtd">
<svg version="1.1" id="Symbol" xmlns="http://www.w3.org/2000/svg" xmlns:xlink="http://www.w3.org/1999/xlink" x="0px" y="0px"
	 width="100px" height="100px" viewBox="0 0 100 100" enable-background="new 0 0 100 100" xml:space="preserve">
<path fill="#FFFFFF" d="M51.951,43.436h-3.237c-1.049,0-1.902,0.85-1.902,1.903v13.995c0,1.049,0.853,1.9,1.902,1.9h3.237
	c1.051,0,1.902-0.851,1.902-1.9V45.339C53.853,44.286,53.001,43.436,51.951,43.436z M37.698,43.436h-3.239
	c-1.04,0-1.899,0.853-1.899,1.903v13.995c0,1.049,0.859,1.903,1.899,1.903h3.239c1.052,0,1.903-0.854,1.903-1.903V45.339
	C39.601,44.289,38.75,43.436,37.698,43.436z M66.197,43.436H62.96c-1.048,0-1.897,0.85-1.897,1.903v13.995
	c0,1.049,0.849,1.9,1.897,1.9h3.236c1.048,0,1.898-0.851,1.898-1.9V45.339C68.095,44.286,67.245,43.436,66.197,43.436z
	 M74.574,37.977l-23.811-9.293c-0.279-0.083-0.579-0.083-0.855,0l-23.827,9.293c-0.668,0.19-1.084,0.798-0.979,1.428
	c0.109,0.634,0.708,1.101,1.404,1.101h47.637c0.707,0,1.31-0.467,1.412-1.101C75.664,38.775,75.25,38.167,74.574,37.977z
	 M75.75,68.221V65.51c0-1.04-0.854-1.9-1.902-1.9H27.164c-1.048,0-1.901,0.86-1.901,1.9v2.711c0,1.048,0.853,1.9,1.901,1.9h46.684
	C74.896,70.121,75.75,69.269,75.75,68.221z"/>
</svg>
