<?xml version="1.0" encoding="utf-8"?>
<!-- Generator: Adobe Illustrator 16.0.0, SVG Export Plug-In . SVG Version: 6.00 Build 0)  -->
<!DOCTYPE svg PUBLIC "-//W3C//DTD SVG 1.1//EN" "http://www.w3.org/Graphics/SVG/1.1/DTD/svg11.dtd">
<svg version="1.1" xmlns="http://www.w3.org/2000/svg" xmlns:xlink="http://www.w3.org/1999/xlink" x="0px" y="0px" width="100px"
	 height="100px" viewBox="0 0 100 100" enable-background="new 0 0 100 100" xml:space="preserve">
<g id="_x30_1" display="none">
	<path display="inline" fill="#FFFFFF" d="M51.951,43.436h-3.237c-1.049,0-1.902,0.85-1.902,1.903v13.995
		c0,1.049,0.853,1.9,1.902,1.9h3.237c1.051,0,1.902-0.852,1.902-1.9V45.339C53.854,44.286,53.001,43.436,51.951,43.436z
		 M37.698,43.436h-3.239c-1.04,0-1.899,0.853-1.899,1.903v13.995c0,1.049,0.859,1.902,1.899,1.902h3.239
		c1.052,0,1.903-0.854,1.903-1.902V45.339C39.601,44.289,38.75,43.436,37.698,43.436z M66.197,43.436H62.96
		c-1.048,0-1.897,0.85-1.897,1.903v13.995c0,1.049,0.85,1.9,1.897,1.9h3.235c1.049,0,1.898-0.852,1.898-1.9V45.339
		C68.096,44.286,67.245,43.436,66.197,43.436z M74.574,37.977l-23.811-9.293c-0.28-0.083-0.58-0.083-0.855,0l-23.827,9.293
		c-0.668,0.19-1.084,0.798-0.979,1.428c0.109,0.634,0.708,1.101,1.404,1.101h47.637c0.707,0,1.311-0.467,1.412-1.101
		C75.664,38.775,75.25,38.167,74.574,37.977z M75.75,68.221V65.51c0-1.039-0.854-1.9-1.902-1.9H27.164
		c-1.048,0-1.901,0.861-1.901,1.9v2.711c0,1.049,0.853,1.9,1.901,1.9h46.684C74.896,70.121,75.75,69.27,75.75,68.221z"/>
</g>
<g id="_x30_2" display="none">
	<g id="Symbol">
		<path display="inline" fill="#379AD6" d="M51.951,43.436h-3.237c-1.049,0-1.902,0.85-1.902,1.903v13.995
			c0,1.049,0.853,1.9,1.902,1.9h3.237c1.051,0,1.902-0.852,1.902-1.9V45.339C53.854,44.286,53.001,43.436,51.951,43.436z
			 M37.698,43.436h-3.239c-1.04,0-1.899,0.853-1.899,1.903v13.995c0,1.049,0.859,1.902,1.899,1.902h3.239
			c1.052,0,1.903-0.854,1.903-1.902V45.339C39.601,44.289,38.75,43.436,37.698,43.436z M66.197,43.436H62.96
			c-1.048,0-1.897,0.85-1.897,1.903v13.995c0,1.049,0.85,1.9,1.897,1.9h3.235c1.049,0,1.898-0.852,1.898-1.9V45.339
			C68.096,44.286,67.245,43.436,66.197,43.436z M74.574,37.977l-23.811-9.293c-0.28-0.083-0.58-0.083-0.855,0l-23.827,9.293
			c-0.668,0.19-1.084,0.798-0.979,1.428c0.109,0.634,0.708,1.101,1.404,1.101h47.637c0.707,0,1.311-0.467,1.412-1.101
			C75.664,38.775,75.25,38.167,74.574,37.977z M75.75,68.221V65.51c0-1.039-0.854-1.9-1.902-1.9H27.164
			c-1.048,0-1.901,0.861-1.901,1.9v2.711c0,1.049,0.853,1.9,1.901,1.9h46.684C74.896,70.121,75.75,69.27,75.75,68.221z"/>
	</g>
	<g id="圖層_2" display="inline">
		<path fill="#FFFFFF" d="M51.021,73.076h-1.029H39.1v-2.059c4.603-3.506,8.201-7.996,8.365-13.179
			c-0.705-0.005-1.28-0.438-1.28-0.969l0,0c0-0.534,0.582-0.97,1.294-0.97h6.173c0.711,0,1.293,0.436,1.293,0.97l0,0
			c0,0.532-0.582,0.97-1.293,0.97h-0.105c0.165,5.182,3.762,9.672,8.365,13.178v2.059H51.021L51.021,73.076z M45.5,29.149
			c-0.107,3.236-0.445,6.326-1.026,9.26c-0.555,2.807-1.331,5.484-2.335,8.027c0.174,0.361,0.452,0.679,0.782,0.954
			c0.657,0.547,1.498,0.916,2.178,1.129l-0.698,2.238c-0.908-0.285-2.05-0.792-2.983-1.57c-0.757-0.631-1.379-1.443-1.661-2.468
			l-0.106-0.386l0.148-0.362c1.03-2.528,1.818-5.201,2.375-8.012c0.56-2.837,0.886-5.799,0.989-8.884L45.5,29.149L45.5,29.149z
			 M38.743,32.448l-2.821-0.768l0.457-1.676h-6.076c0.595,2.921,1.656,5.486,3.163,7.708c1.279,1.887,2.892,3.54,4.823,4.964
			c1.096-3.716,1.794-7.963,1.86-13.052c-0.201-0.05-0.398-0.107-0.589-0.168L38.743,32.448L38.743,32.448z M35.975,27.068h-7.407
			h-1.681l0.23,1.668c0.562,4.069,1.884,7.599,3.929,10.614c1.639,2.417,3.737,4.488,6.272,6.225
			c-0.249,0.667-0.512,1.316-0.783,1.951c5.206,9.906,21.939,9.906,27.146,0c-0.272-0.633-0.535-1.28-0.783-1.945
			c2.539-1.738,4.64-3.811,6.281-6.23c2.045-3.015,3.367-6.545,3.93-10.614l0.229-1.668h-1.68H64.24
			c0.562-0.673,1.031-1.464,1.41-2.373h-7.762H42.327h-7.763C34.943,25.604,35.413,26.395,35.975,27.068L35.975,27.068z
			 M60.666,29.452l0.816,2.996l2.82-0.768l-0.457-1.676h6.077c-0.596,2.921-1.657,5.486-3.165,7.708
			c-1.281,1.889-2.896,3.544-4.831,4.971c-1.098-3.717-1.797-7.965-1.862-13.059C60.271,29.571,60.471,29.514,60.666,29.452
			L60.666,29.452z M37,73.604h26.698c0.776,0,1.411,0.477,1.411,1.059l0,0c0,0.582-0.635,1.057-1.411,1.057H37
			c-0.775,0-1.412-0.476-1.412-1.057l0,0C35.588,74.08,36.225,73.604,37,73.604z"/>
	</g>
</g>
<g id="_x30_3" display="none">
	<g display="inline">
		<path fill="#FFFFFF" d="M58.686,19.853c8.72,3.029,1.354,18.081-5.507,10.509C50.012,26.869,51.367,17.307,58.686,19.853z"/>
		<path fill="#FFFFFF" d="M33.229,43.895c-2.334,2.567-4.235-3.671,4.664-8.256c5.687-2.929,13.028-3.428,18.667-1.8
			c4.021,1.159,8.594,5.156,10.804,9.821c2.087,4.408,2.925,6.797,3.099,15.862c0.058,3.014-2.399,4.881-3.345,0.589
			c-0.527-2.827-0.983-5.208-1.474-4.912c-0.492,0.298-0.946,4.281-0.99,5.896c-0.237,8.838-0.599,17.922-4.656,19.149
			c-5.685,1.723,1.741-15.035-3.929-15.468c-4.385-0.335-0.803,15.468-7.119,15.468c-6.316,0,5.013-27.79-0.579-35.309
			C43.763,38.738,36.912,39.844,33.229,43.895z"/>
		<g>
			<path fill="#FFFFFF" d="M38.375,43.605c-4.708,2.194,0.275,10.197,3.683,5.569C43.631,47.037,42.325,41.764,38.375,43.605z"/>
			<path fill="#FFFFFF" d="M38.8,52.172c-8.304,2.411-11.338,11.069-6.281,16.044c0.256,6.259,1.681,10.94,3.571,11.232
				c2.694,0.414-0.491-8.337,2.073-8.702c2.899-0.414,0.621,8.495,2.485,8.702c1.804,0.2,3.475-5.646,4.141-11.425l0.003,0.028
				C48.542,63.514,47.103,49.759,38.8,52.172z M38.115,66.371c-2.052-0.351-3.836-4.6-3.306-6.794
				c0.664-2.745,3.987-1.385,4.242,0.957c0,0,2.423-2.473,4.196-0.527C44.979,61.906,40.169,66.723,38.115,66.371z"/>
		</g>
	</g>
</g>
<g id="_x30_4" display="none">
	<path display="inline" fill="#FFFFFF" d="M35.559,23.958h25.509c1.582,0,3.021,0.647,4.063,1.688
		c1.041,1.042,1.689,2.48,1.689,4.063v12.194L64.398,44.3V29.71c0-0.915-0.375-1.748-0.979-2.352
		c-0.604-0.604-1.437-0.979-2.351-0.979H38.812l3.535,3.046c0.505,0.436,0.56,1.198,0.124,1.702l-0.023,0.026L30.208,45.839v22.494
		c0,0.915,0.375,1.747,0.979,2.351c0.604,0.605,1.437,0.98,2.352,0.98h7.294l-0.853,2.421h-6.441c-1.583,0-3.021-0.646-4.063-1.688
		c-1.042-1.042-1.689-2.48-1.689-4.063V45.409c0-0.165,0.034-0.322,0.093-0.465l6.524-20.126c0.022-0.075,0.054-0.149,0.091-0.219
		l0-0.003l0.009-0.016l0.003-0.005l0.012-0.021l0,0c0.063-0.106,0.141-0.201,0.23-0.281l0.003-0.002l0.009-0.008l0.014-0.012
		l0.003-0.003l0.019-0.015L34.8,24.23l0.018-0.014c0.106-0.083,0.224-0.146,0.348-0.188l0.022-0.007l0.023-0.007l0.006-0.002
		l0.016-0.004l0.011-0.003l0.004-0.001c0.018-0.005,0.035-0.009,0.053-0.013h0l0.023-0.005l0.005-0.001
		c0.075-0.015,0.152-0.022,0.23-0.022V23.958L35.559,23.958z M35,57.031v1.938h12.607v-1.938H35L35,57.031z M35,51.766v1.94h12.607
		v-1.94H35L35,51.766z M35,46.807v1.94h25.214v-1.94H35L35,46.807z M48.023,40.804v1.94h12.19v-1.94H48.023L48.023,40.804z
		 M48.023,35.447v1.94h12.19v-1.94H48.023L48.023,35.447z M48.023,30.551v1.94h12.19v-1.94H48.023L48.023,30.551z M65.694,46.746
		L46.089,66.352l5.882,5.882l19.605-19.606L65.694,46.746L65.694,46.746z M45.336,67.258l-2.245,6.375l1.893,1.895l6.164-2.457
		L45.336,67.258L45.336,67.258z M66.82,61.442l-2.422,2.396v4.495c0,0.915-0.375,1.747-0.979,2.351
		c-0.604,0.605-1.437,0.98-2.351,0.98h-4.577l-1.413,1.398l1.023,1.022h4.967c1.582,0,3.021-0.646,4.063-1.688
		c1.041-1.042,1.689-2.48,1.689-4.063V61.442L66.82,61.442z M32.072,39.836l7.799-9.358l-3.724-3.21L32.072,39.836z"/>
</g>
<g id="_x30_5" display="none">
	<path display="inline" fill-rule="evenodd" clip-rule="evenodd" fill="#FFFFFF" d="M23.163,67.113c0-11.173,0-22.346,0-33.52
		c9.304-4.655,18.638-9.246,27.919-13.947c8.625,4.389,17.245,8.786,25.885,13.142c0,11.429,0,22.858,0,34.285
		c-9.079,4.406-18.162,8.805-27.243,13.207C40.864,75.907,32.003,71.529,23.163,67.113L23.163,67.113z M63.306,29.119
		c-7.479,3.798-14.952,7.61-22.43,11.409c3.115,1.586,6.233,3.167,9.348,4.752c7.46-3.821,14.931-7.622,22.394-11.437
		C69.514,32.27,66.409,30.695,63.306,29.119L63.306,29.119z M37.11,38.612c7.478-3.797,14.957-7.596,22.424-11.412
		c-2.824-1.427-5.643-2.864-8.464-4.296c-7.555,3.771-15.117,7.528-22.675,11.289C31.299,35.668,34.203,37.141,37.11,38.612
		L37.11,38.612z M48.369,47.791c-3.387-1.677-6.772-3.357-10.156-5.039c0,2.085,0,4.171,0,6.257
		c-1.229-0.603-2.458-1.206-3.684-1.815c0-2.09,0-4.179,0-6.269c-2.823-1.401-5.647-2.803-8.471-4.204c0,9.532,0,19.063,0,28.595
		c7.432,3.697,14.869,7.385,22.311,11.063C48.369,66.851,48.369,57.319,48.369,47.791L48.369,47.791z M69.522,62.891v-6.288
		l2.105-1.02l-3.851-3.433l-3.849,7.16l2.104-1.018v6.288L69.522,62.891L69.522,62.891z M61.257,66.894v-6.288l2.103-1.019
		l-3.848-3.434l-3.851,7.161l2.104-1.019v6.288L61.257,66.894L61.257,66.894z M54.526,71.924l18.237-8.833v2.254l-18.237,8.833
		V71.924L54.526,71.924z"/>
</g>
<g id="_x30_6">
	<path fill="#FFFFFF" d="M73.855,76.002V23.606c0,0-0.064-1.492-1.726-1.513s-44.344,0-44.344,0s-1.619,0.043-1.64,1.193
		c-0.021,1.15,0,53.161,0,53.161s-0.213,1.47,1.385,1.533c1.851,0.073,43.066,0.127,44.79,0
		C74.047,77.854,73.855,76.002,73.855,76.002z M31.173,27.887h19.169v11.246H31.173V27.887z M69.606,72.655H30.502V69.42h39.104
		V72.655z M69.606,64.274H30.502v-3.235h39.104V64.274z M69.606,55.895H30.502v-3.235h39.104V55.895z M69.606,47.513H30.502v-3.234
		h39.104V47.513z M69.606,39.132H54.271v-3.234h15.335V39.132z"/>
</g>
<g id="_x30_7" display="none">
	<g display="inline">
		<g>
			<path fill="#FFFFFF" d="M42.059,13.837c2.109,0.564,0.877,6.209-0.75,6.899c-1.629,0.689-4.85-1.53-5.477-3.342
				c-0.783-2.265,2.215-2.815,3.471-1.258C39.303,16.137,39.901,13.259,42.059,13.837z"/>
			<path fill="#FFFFFF" d="M25.928,36.071c0.793,2.033,6.267,0.188,6.773-1.506c0.506-1.694-2.054-4.651-3.922-5.074
				c-2.336-0.531-2.555,2.511-0.869,3.586C27.91,33.078,25.118,33.991,25.928,36.071z"/>
			<path fill="#FFFFFF" d="M28.569,25.729c0.186,2.175,5.957,1.953,6.923,0.472c0.964-1.481-0.656-5.042-2.329-5.978
				c-2.092-1.168-3.158,1.687-1.847,3.195C31.316,23.418,28.38,23.504,28.569,25.729z"/>
			<path fill="#FFFFFF" d="M58.261,13.092c-2.165-0.274-3.158,5.417-1.913,6.672c1.248,1.254,5.07,0.418,6.335-1.023
				c1.581-1.799-0.986-3.444-2.739-2.477C59.943,16.264,60.478,13.373,58.261,13.092z"/>
			<path fill="#FFFFFF" d="M71.957,35.442c-1.077,1.899-6.23-0.711-6.489-2.459c-0.26-1.749,2.697-4.309,4.608-4.461
				c2.391-0.189,2.171,2.852,0.348,3.675C70.424,32.197,73.058,33.499,71.957,35.442z"/>
			<path fill="#FFFFFF" d="M69.931,24.868c-0.185,2.174-5.959,1.952-6.925,0.47c-0.964-1.48,0.656-5.042,2.329-5.977
				c2.091-1.168,3.16,1.687,1.848,3.195C67.183,22.557,70.121,22.642,69.931,24.868z"/>
			<path fill="#FFFFFF" d="M52.398,11.834c1.888,1.098-0.779,6.222-2.53,6.462c-1.751,0.241-4.278-2.745-4.409-4.659
				c-0.165-2.39,2.874-2.137,3.678-0.305C49.137,13.333,50.469,10.712,52.398,11.834z"/>
		</g>
		<path fill="#FFFFFF" d="M70.191,39.609c-3.141-3.128-9.051,6.894-21.548,8.187c-10.508,1.087-22.406-10.343-24.13-6.895
			c-2.124,4.249,15.828,10.354,15.942,20.253c0.117,10.046-0.79,24.551,4.31,23.701c2.586-0.431,1.293-14.22,4.115-13.893
			c5.563,0.645,2.349,13.893,5.105,14.212c5.423,0.628,3.376-16.561,3.707-25.313C58.067,49.968,73.741,43.146,70.191,39.609z"/>
		<path fill="#FFFFFF" d="M46.711,34.981c-7.34,3.423,0.43,15.906,5.746,8.685C54.91,40.335,52.873,32.108,46.711,34.981z"/>
	</g>
</g>
<g id="_x30_8" display="none">
	<g display="inline">
		<g id="XMLID_2_">
			<g>
				<path fill="#FFFFFF" d="M77.534,53.946c0,0,0.955,7.936-18.409,7.936h-2.138c-1.5,0-2.876-0.047-4.141-0.135
					c0.458-1.494,0.706-3.081,0.706-4.725c0-8.489-6.578-15.441-14.916-16.04c0.656-6.093,6.904-9.322,11.93-10.945
					c0.778,2.749,3.666,4.814,7.155,4.938l-4.182,13.509l4.515,7.758l4.516-7.758l-4.183-13.509
					c3.491-0.124,6.379-2.189,7.156-4.938c5.312,1.716,11.989,5.22,11.989,12.006C77.534,53.313,77.534,53.946,77.534,53.946z"/>
				<path fill="#FFFFFF" d="M58.056,14.064c5.604,0,6.705,4.076,6.705,9.106c0,5.028-3.502,9.104-6.705,9.104
					c-3.2,0-6.703-4.076-6.703-9.104C51.353,18.141,52.454,14.064,58.056,14.064z"/>
				<path fill="#FFFFFF" d="M43.319,44.249c7.068,3.245,10.167,11.605,6.922,18.673c-2.884,6.278-9.804,9.42-16.269,7.768
					l-1.662,3.62l-4.615-2.12l1.661-3.618c-5.466-3.828-7.592-11.123-4.71-17.403C27.893,44.102,36.252,41.003,43.319,44.249z
					 M46.264,61.095c2.235-4.871,0.101-10.631-4.771-12.868c-4.871-2.236-10.632-0.101-12.869,4.769
					c-2.236,4.871-0.101,10.632,4.77,12.868C38.266,68.099,44.026,65.964,46.264,61.095z"/>
				<path fill="#FFFFFF" d="M32.054,74.869c0,0,0.81,0.897-0.382,3.493c-1.192,2.597-2.451,5.337-2.451,5.337l-2.597-1.193
					l-1.441-0.662l-2.597-1.19c0,0,1.258-2.741,2.451-5.338c1.192-2.595,2.399-2.565,2.399-2.565l2.308,1.061h0.002L32.054,74.869z"
					/>
				<path fill="#FFFFFF" d="M22.772,81.437l5.734,2.632c-0.971,0.887-2.433,1.152-3.728,0.559
					C23.484,84.033,22.731,82.749,22.772,81.437z"/>
			</g>
		</g>
	</g>
</g>
<g id="參考線">
</g>
</svg>
