<?xml version="1.0" encoding="utf-8"?>
<!-- Generator: Adobe Illustrator 16.0.0, SVG Export Plug-In . SVG Version: 6.00 Build 0)  -->
<!DOCTYPE svg PUBLIC "-//W3C//DTD SVG 1.1//EN" "http://www.w3.org/Graphics/SVG/1.1/DTD/svg11.dtd">
<svg version="1.1" id="Symbol" xmlns="http://www.w3.org/2000/svg" xmlns:xlink="http://www.w3.org/1999/xlink" x="0px" y="0px"
	 width="100px" height="100px" viewBox="0 0 100 100" enable-background="new 0 0 100 100" xml:space="preserve">
<path fill="#FFFFFF" d="M31.658,62.565l1.685-1.221c-6.15-2.537-11.676-9.617-11.676-9.617l-4.659-0.492
	c1.095-0.562,2.448-3.266,2.448-3.266c3.127-9.062,11.999-8.24,14.242-7.301c1.714,0.718,6.622,2.011,9.285,0.361
	c7.658-2.991,12.647-2.204,18.52-2.405c5.873-0.201,15.706-10.261,15.706-10.261l7.918,0.562c-3.813,5.72-17.3,13.104-17.3,13.104
	s2.752,0.724,5.779-0.362c0,0-4.479,5.006-9.484,6.536c0,0-0.828,9.144-8.834,13.762c0,0-0.698,3.961-1.854,5.694
	c0,0-1.063,1.895,0.758,4.632c0,0-2.201-0.547-2.46-2.201c0,0-2.819,1.826-2.588,2.982l-0.19,2.598c0,0-1.773-3.407-0.595-4.725
	c0,0-1.762-0.152-2.1,1.285c0,0-0.129-2.33,2.811-3.495c0,0,2.779-1.072,3.73-4.964c0,0-12.466,1.871-17.727-1.176l-2.278,1.254
	c0,0,1.146,0.343,1.264,1.338c0.385,1.293-0.549,2.503-0.549,2.503s0.057-2.351-0.958-2.044c-1.016,0.307-5.696,1.412-5.696,1.412
	s-0.407,0.555-0.087,1.82c-0.853-0.704-1.056-1.538-1.056-1.538s0.063-0.16-0.897,0.19c-0.964,0.353-0.711,2.508-0.711,2.508
	s-0.879-2.122-0.18-3.245c-0.569-0.48-1.739,0.993-1.739,0.993s0.776-2.369,2.326-2.633C26.059,64.889,29.483,64.73,31.658,62.565z"
	/>
</svg>
